<svg xmlns="http://www.w3.org/2000/svg" xmlns:xlink="http://www.w3.org/1999/xlink" width="500" zoomAndPan="magnify" viewBox="0 0 375 374.999991" height="500" preserveAspectRatio="xMidYMid meet" version="1.0"><defs><g/><clipPath id="id1"><path d="M 41 69 L 328 69 L 328 344 L 41 344 Z M 41 69 " clip-rule="nonzero"/></clipPath><clipPath id="id2"><path d="M 60.558594 18.988281 L 371.203125 116.207031 L 286.304688 387.484375 L -24.335938 290.265625 Z M 60.558594 18.988281 " clip-rule="nonzero"/></clipPath><clipPath id="id3"><path d="M 60.558594 18.988281 L 371.203125 116.207031 L 286.304688 387.484375 L -24.335938 290.265625 Z M 60.558594 18.988281 " clip-rule="nonzero"/></clipPath><clipPath id="id4"><path d="M 60.558594 18.988281 L 371.203125 116.207031 L 286.304688 387.484375 L -24.335938 290.265625 Z M 60.558594 18.988281 " clip-rule="nonzero"/></clipPath><clipPath id="id5"><path d="M 36 61 L 322 61 L 322 336 L 36 336 Z M 36 61 " clip-rule="nonzero"/></clipPath><clipPath id="id6"><path d="M 60.558594 18.988281 L 371.203125 116.207031 L 286.304688 387.484375 L -24.335938 290.265625 Z M 60.558594 18.988281 " clip-rule="nonzero"/></clipPath><clipPath id="id7"><path d="M 60.558594 18.988281 L 371.203125 116.207031 L 286.304688 387.484375 L -24.335938 290.265625 Z M 60.558594 18.988281 " clip-rule="nonzero"/></clipPath><clipPath id="id8"><path d="M 60.558594 18.988281 L 371.203125 116.207031 L 286.304688 387.484375 L -24.335938 290.265625 Z M 60.558594 18.988281 " clip-rule="nonzero"/></clipPath><clipPath id="id9"><path d="M 33 58 L 325 58 L 325 339 L 33 339 Z M 33 58 " clip-rule="nonzero"/></clipPath><clipPath id="id10"><path d="M 60.558594 18.988281 L 371.203125 116.207031 L 286.304688 387.484375 L -24.335938 290.265625 Z M 60.558594 18.988281 " clip-rule="nonzero"/></clipPath><clipPath id="id11"><path d="M 60.558594 18.988281 L 371.203125 116.207031 L 286.304688 387.484375 L -24.335938 290.265625 Z M 60.558594 18.988281 " clip-rule="nonzero"/></clipPath><clipPath id="id12"><path d="M 60.558594 18.988281 L 371.203125 116.207031 L 286.304688 387.484375 L -24.335938 290.265625 Z M 60.558594 18.988281 " clip-rule="nonzero"/></clipPath></defs><path fill="#8b98fd" d="M 366.042969 330.191406 C 366.042969 349.726562 349.054688 365.578125 330.929688 365.578125 L 36.433594 365.578125 C 31.339844 365.578125 26.242188 364.445312 21.710938 362.464844 C 27.65625 368.695312 35.867188 372.375 44.929688 372.375 L 339.425781 372.375 C 357.265625 372.375 371.992188 357.652344 371.992188 339.816406 L 371.992188 45.972656 C 371.992188 37.761719 368.875 30.402344 364.0625 24.738281 C 365.476562 28.421875 366.042969 32.382812 366.042969 36.347656 L 366.042969 330.191406 " fill-opacity="1" fill-rule="nonzero"/><path fill="#7181ff" d="M 36.433594 362.75 L 330.363281 362.75 C 348.203125 362.75 362.929688 348.027344 362.929688 330.191406 L 362.929688 36.347656 C 362.929688 18.511719 348.203125 3.792969 330.363281 3.792969 L 36.433594 3.792969 C 18.59375 3.792969 3.871094 18.511719 3.871094 36.347656 L 3.871094 330.191406 C 3.871094 348.3125 18.59375 362.75 36.433594 362.75 " fill-opacity="1" fill-rule="nonzero"/><path fill="#414a92" d="M 360.378906 17.664062 C 354.152344 7.753906 343.105469 0.960938 330.363281 0.960938 L 36.433594 0.960938 C 16.898438 0.960938 1.039062 16.8125 1.039062 36.347656 L 1.039062 330.191406 C 1.039062 341.800781 6.703125 351.992188 15.199219 358.503906 C 21.425781 368.410156 32.472656 375.203125 45.214844 375.203125 L 339.144531 375.203125 C 358.679688 375.203125 374.539062 359.351562 374.539062 339.816406 L 374.539062 45.972656 C 374.539062 34.363281 368.875 24.171875 360.378906 17.664062 M 3.871094 330.191406 L 3.871094 36.347656 C 3.871094 18.511719 18.59375 3.792969 36.433594 3.792969 L 330.363281 3.792969 C 348.203125 3.792969 362.929688 18.511719 362.929688 36.347656 L 362.929688 330.191406 C 362.929688 348.027344 348.203125 362.75 330.363281 362.75 L 36.433594 362.75 C 18.59375 362.75 3.871094 348.3125 3.871094 330.191406 M 371.992188 339.816406 C 371.992188 357.652344 356.984375 372.375 339.144531 372.375 L 45.214844 372.375 C 36.152344 372.375 27.941406 368.695312 21.992188 362.464844 C 26.523438 364.445312 31.339844 365.578125 36.71875 365.578125 L 330.648438 365.578125 C 350.1875 365.578125 366.042969 349.726562 366.042969 330.191406 L 366.042969 36.347656 C 366.042969 32.382812 365.195312 28.421875 364.0625 24.738281 C 368.875 30.402344 371.992188 37.761719 371.992188 45.972656 L 371.992188 339.816406 " fill-opacity="1" fill-rule="nonzero"/><g clip-path="url(#id1)"><g clip-path="url(#id2)"><g clip-path="url(#id3)"><g clip-path="url(#id4)"><path fill="#000000" d="M 215.03125 76.984375 C 150.175781 57.820312 82.054688 75.761719 54.101562 122.703125 C 22.148438 176.351562 54.683594 247.652344 126.734375 281.863281 L 127.476562 282.078125 C 127.410156 282.207031 127.4375 282.277344 127.355469 282.402344 L 126.085938 282.046875 L 145.582031 343.4375 L 189.894531 299.714844 L 187.363281 299.027344 L 188.972656 299.449219 L 190.144531 299.167969 L 190.386719 299.226562 L 189.894531 299.714844 L 190.296875 299.820312 L 190.476562 299.253906 L 190.492188 299.257812 C 246.25 304.160156 292.519531 284.644531 315.144531 246.664062 C 347.097656 193.015625 314.542969 121.710938 242.496094 87.496094 C 233.488281 83.21875 224.300781 79.726562 215.035156 76.988281 Z M 215.03125 76.984375 " fill-opacity="0.502" fill-rule="evenodd"/></g></g></g></g><g clip-path="url(#id5)"><g clip-path="url(#id6)"><g clip-path="url(#id7)"><g clip-path="url(#id8)"><path fill="#ffffff" d="M 209.367188 68.945312 C 144.507812 49.78125 76.390625 67.722656 48.433594 114.664062 C 16.480469 168.3125 49.015625 239.613281 121.066406 273.828125 L 121.808594 274.039062 C 121.742188 274.167969 121.769531 274.238281 121.6875 274.363281 L 120.417969 274.007812 L 139.914062 335.398438 L 184.226562 291.679688 L 181.695312 290.988281 L 183.304688 291.410156 L 184.476562 291.132812 L 184.71875 291.1875 L 184.226562 291.679688 L 184.628906 291.785156 L 184.808594 291.214844 L 184.824219 291.21875 C 240.582031 296.121094 286.851562 276.609375 309.476562 238.625 C 341.429688 184.980469 308.878906 113.671875 236.828125 79.457031 C 227.820312 75.183594 218.632812 71.6875 209.367188 68.949219 Z M 209.367188 68.945312 " fill-opacity="1" fill-rule="evenodd"/></g></g></g></g><g clip-path="url(#id9)"><g clip-path="url(#id10)"><g clip-path="url(#id11)"><g clip-path="url(#id12)"><path stroke-linecap="butt" transform="matrix(0.58732, 0.183804, -0.183919, 0.587686, 70.713413, 10.875757)" fill="none" stroke-linejoin="round" d="M 243.201802 22.746826 C 133.319412 24.504239 36.392902 85.347841 15.819643 171.657318 C -7.695574 270.299532 77.362455 365.021457 205.701462 383.101808 L 206.954793 383.068745 C 206.914373 383.300733 206.990901 383.396441 206.924354 383.629952 L 204.783093 383.694791 L 264.811001 469.382112 L 312.31178 380.134431 L 308.050852 380.290588 L 310.75136 380.163837 L 312.434063 379.16563 L 312.83618 379.132919 L 312.31178 380.134431 L 312.986907 380.102743 L 312.988777 379.131721 L 313.014904 379.130196 C 401.861419 359.684369 464.145226 307.003579 480.796769 237.161844 C 504.313881 138.525684 419.22783 43.799229 290.888824 25.718879 C 274.845835 23.464843 258.901453 22.502686 243.203698 22.75288 Z M 243.201802 22.746826 " stroke="#000000" stroke-width="10" stroke-opacity="1" stroke-miterlimit="4"/></g></g></g></g><g fill="#000000" fill-opacity="1"><g transform="translate(47.792325, 163.01555)"><g><path d="M 26.671875 -2.890625 C 28.085938 -2.578125 29.515625 -2.484375 30.953125 -2.609375 C 32.398438 -2.734375 33.476562 -2.921875 34.1875 -3.171875 L 35.296875 -3.625 L 37.46875 5.21875 C 37.3125 5.289062 37.097656 5.382812 36.828125 5.5 C 36.566406 5.613281 35.960938 5.800781 35.015625 6.0625 C 34.078125 6.320312 33.09375 6.507812 32.0625 6.625 C 31.03125 6.738281 29.703125 6.753906 28.078125 6.671875 C 26.460938 6.585938 24.828125 6.359375 23.171875 5.984375 C 19.359375 5.128906 15.957031 3.382812 12.96875 0.75 C 9.976562 -1.882812 7.804688 -5.078125 6.453125 -8.828125 C 5.109375 -12.578125 4.863281 -16.359375 5.71875 -20.171875 C 6.363281 -23.046875 7.59375 -25.664062 9.40625 -28.03125 C 11.226562 -30.40625 13.367188 -32.304688 15.828125 -33.734375 C 18.296875 -35.160156 21.015625 -36.132812 23.984375 -36.65625 C 26.953125 -37.175781 29.859375 -37.117188 32.703125 -36.484375 C 35.347656 -35.890625 37.71875 -35.023438 39.8125 -33.890625 C 41.90625 -32.765625 43.34375 -31.78125 44.125 -30.9375 L 45.28125 -29.6875 L 39.546875 -22.625 C 39.359375 -22.882812 39.066406 -23.203125 38.671875 -23.578125 C 38.273438 -23.960938 37.429688 -24.539062 36.140625 -25.3125 C 34.847656 -26.09375 33.492188 -26.640625 32.078125 -26.953125 C 29.828125 -27.460938 27.722656 -27.554688 25.765625 -27.234375 C 23.804688 -26.910156 22.171875 -26.269531 20.859375 -25.3125 C 19.554688 -24.351562 18.476562 -23.242188 17.625 -21.984375 C 16.769531 -20.734375 16.179688 -19.394531 15.859375 -17.96875 C 15.160156 -14.863281 15.703125 -11.816406 17.484375 -8.828125 C 19.273438 -5.847656 22.335938 -3.867188 26.671875 -2.890625 Z M 26.671875 -2.890625 "/></g></g></g><g fill="#000000" fill-opacity="1"><g transform="translate(87.659035, 171.956261)"><g><path d="M 2.96875 0.671875 L 12.546875 -42.03125 L 21.34375 -40.0625 L 16.875 -20.15625 L 16.96875 -20.140625 C 19.769531 -21.910156 22.460938 -22.503906 25.046875 -21.921875 C 26.304688 -21.640625 27.519531 -21.191406 28.6875 -20.578125 C 29.851562 -19.972656 30.925781 -19.191406 31.90625 -18.234375 C 32.894531 -17.285156 33.601562 -16.09375 34.03125 -14.65625 C 34.457031 -13.226562 34.484375 -11.671875 34.109375 -9.984375 L 30.34375 6.796875 L 21.5625 4.828125 L 24.796875 -9.578125 C 25.085938 -10.898438 24.921875 -12.148438 24.296875 -13.328125 C 23.671875 -14.503906 22.679688 -15.242188 21.328125 -15.546875 C 20.003906 -15.847656 18.6875 -15.601562 17.375 -14.8125 C 16.070312 -14.03125 15.28125 -13.015625 15 -11.765625 L 11.765625 2.640625 Z M 2.96875 0.671875 "/></g></g></g><g fill="#000000" fill-opacity="1"><g transform="translate(122.958297, 179.872654)"><g><path d="M 5.421875 -2.09375 C 3.617188 -5.226562 3.140625 -8.679688 3.984375 -12.453125 C 4.835938 -16.234375 6.75 -19.160156 9.71875 -21.234375 C 12.6875 -23.316406 16.003906 -23.945312 19.671875 -23.125 C 23.054688 -22.363281 25.609375 -20.675781 27.328125 -18.0625 L 27.875 -20.5 L 36.65625 -18.53125 L 30.9375 6.9375 L 22.25 4.984375 L 22.890625 2.109375 L 22.796875 2.09375 C 20.066406 4.019531 17.007812 4.601562 13.625 3.84375 C 9.957031 3.019531 7.222656 1.039062 5.421875 -2.09375 Z M 16 -14.296875 C 14.601562 -13.429688 13.707031 -12.117188 13.3125 -10.359375 C 12.925781 -8.609375 13.15625 -7.054688 14 -5.703125 C 14.84375 -4.347656 16.160156 -3.46875 17.953125 -3.0625 C 19.671875 -2.675781 21.207031 -2.921875 22.5625 -3.796875 C 23.925781 -4.671875 24.804688 -5.972656 25.203125 -7.703125 C 25.585938 -9.453125 25.335938 -11.015625 24.453125 -12.390625 C 23.566406 -13.773438 22.296875 -14.65625 20.640625 -15.03125 C 18.953125 -15.40625 17.40625 -15.160156 16 -14.296875 Z M 16 -14.296875 "/></g></g></g><g fill="#000000" fill-opacity="1"><g transform="translate(159.349772, 188.033992)"><g><path d="M 10.1875 -24.46875 L 12.3125 -33.953125 L 21.109375 -31.984375 L 18.984375 -22.5 L 24.328125 -21.296875 L 22.8125 -14.59375 L 17.46875 -15.796875 L 15.65625 -7.703125 C 15.132812 -5.359375 15.535156 -4.035156 16.859375 -3.734375 C 17.179688 -3.660156 17.535156 -3.644531 17.921875 -3.6875 C 18.316406 -3.738281 18.632812 -3.8125 18.875 -3.90625 L 19.203125 -4.03125 L 19.8125 3.5625 C 17.675781 4.195312 15.398438 4.242188 12.984375 3.703125 C 11.328125 3.328125 9.96875 2.71875 8.90625 1.875 C 7.851562 1.03125 7.128906 0.0507812 6.734375 -1.0625 C 6.335938 -2.1875 6.128906 -3.316406 6.109375 -4.453125 C 6.085938 -5.585938 6.210938 -6.769531 6.484375 -8 L 8.671875 -17.765625 L 5 -18.59375 L 6.515625 -25.296875 Z M 10.1875 -24.46875 "/></g></g></g><g fill="#000000" fill-opacity="1"><g transform="translate(181.443131, 192.988761)"><g><path d="M 32.96875 -35.640625 L 40.328125 9.046875 L 30.296875 6.796875 L 29.109375 -2.078125 L 13.5 -5.578125 L 8.640625 1.9375 L -1.390625 -0.3125 L 24.328125 -37.578125 Z M 27.765625 -10.984375 L 25.859375 -23.921875 L 25.75 -23.9375 L 18.515625 -13.0625 Z M 27.765625 -10.984375 "/></g></g></g><g fill="#000000" fill-opacity="1"><g transform="translate(222.848895, 202.274629)"><g><path d="M 34.203125 -15.765625 C 36.003906 -12.640625 36.484375 -9.191406 35.640625 -5.421875 C 34.796875 -1.648438 32.882812 1.273438 29.90625 3.359375 C 26.9375 5.453125 23.613281 6.085938 19.9375 5.265625 C 16.5625 4.503906 14.019531 2.816406 12.3125 0.203125 L 8.875 15.546875 L 0.078125 13.578125 L 8.6875 -24.796875 L 17.375 -22.859375 L 16.71875 -19.984375 L 16.828125 -19.953125 C 19.554688 -21.878906 22.609375 -22.460938 25.984375 -21.703125 C 29.660156 -20.878906 32.398438 -18.898438 34.203125 -15.765625 Z M 23.609375 -3.5625 C 25.003906 -4.4375 25.898438 -5.753906 26.296875 -7.515625 C 26.691406 -9.273438 26.46875 -10.828125 25.625 -12.171875 C 24.78125 -13.523438 23.460938 -14.398438 21.671875 -14.796875 C 19.953125 -15.179688 18.410156 -14.9375 17.046875 -14.0625 C 15.691406 -13.1875 14.820312 -11.890625 14.4375 -10.171875 C 14.039062 -8.410156 14.285156 -6.835938 15.171875 -5.453125 C 16.066406 -4.078125 17.335938 -3.203125 18.984375 -2.828125 C 20.679688 -2.453125 22.222656 -2.695312 23.609375 -3.5625 Z M 23.609375 -3.5625 "/></g></g></g><g fill="#000000" fill-opacity="1"><g transform="translate(259.240364, 210.435965)"><g><path d="M 34.203125 -15.765625 C 36.003906 -12.640625 36.484375 -9.191406 35.640625 -5.421875 C 34.796875 -1.648438 32.882812 1.273438 29.90625 3.359375 C 26.9375 5.453125 23.613281 6.085938 19.9375 5.265625 C 16.5625 4.503906 14.019531 2.816406 12.3125 0.203125 L 8.875 15.546875 L 0.078125 13.578125 L 8.6875 -24.796875 L 17.375 -22.859375 L 16.71875 -19.984375 L 16.828125 -19.953125 C 19.554688 -21.878906 22.609375 -22.460938 25.984375 -21.703125 C 29.660156 -20.878906 32.398438 -18.898438 34.203125 -15.765625 Z M 23.609375 -3.5625 C 25.003906 -4.4375 25.898438 -5.753906 26.296875 -7.515625 C 26.691406 -9.273438 26.46875 -10.828125 25.625 -12.171875 C 24.78125 -13.523438 23.460938 -14.398438 21.671875 -14.796875 C 19.953125 -15.179688 18.410156 -14.9375 17.046875 -14.0625 C 15.691406 -13.1875 14.820312 -11.890625 14.4375 -10.171875 C 14.039062 -8.410156 14.285156 -6.835938 15.171875 -5.453125 C 16.066406 -4.078125 17.335938 -3.203125 18.984375 -2.828125 C 20.679688 -2.453125 22.222656 -2.695312 23.609375 -3.5625 Z M 23.609375 -3.5625 "/></g></g></g></svg>